<svg xmlns="http://www.w3.org/2000/svg" viewBox="0 0 120 120" width="1024" height="1024" role="img" aria-label="SetuDocs AI mark"><defs><linearGradient id="main" gradientUnits="userSpaceOnUse" x1="10" y1="10" x2="110" y2="110"><stop offset="0" stop-color="#2563EB"/><stop offset="1" stop-color="#1FB5CC"/></linearGradient><linearGradient id="acc" gradientUnits="userSpaceOnUse" x1="10" y1="10" x2="110" y2="110"><stop offset="0" stop-color="#F2A93B"/><stop offset="1" stop-color="#FFD36B"/></linearGradient><linearGradient id="arch" gradientUnits="userSpaceOnUse" x1="10" y1="10" x2="110" y2="110"><stop offset="0" stop-color="#2563EB"/><stop offset="1" stop-color="#1FB5CC"/></linearGradient><linearGradient id="txt" gradientUnits="userSpaceOnUse" x1="10" y1="10" x2="110" y2="110"><stop offset="0" stop-color="#2563EB"/><stop offset="1" stop-color="#1FB5CC"/></linearGradient></defs><g transform="translate(0 0) scale(1.0)"><path d="M24 104 V60 C24 38 44 30 60 8 C76 30 96 38 96 60 V104 Z" fill="url(#arch)"/><rect x="44" y="58" width="32" height="40" rx="4" fill="#F4F7FC"/><rect x="50" y="66" width="20" height="4.5" rx="2.25" fill="#2563EB"/><rect x="50" y="75" width="20" height="4.5" rx="2.25" fill="#2563EB"/><circle cx="60" cy="38" r="7" fill="url(#acc)"/><rect x="14" y="104" width="92" height="8" rx="4" fill="url(#acc)"/></g></svg>